<svg width="200" height="57" viewBox="0 0 200 57" fill="none" xmlns="http://www.w3.org/2000/svg">
<path d="M-1.08393e-07 18.4186C2.57262 0.600168 45.793 0.105869 58.6561 16.9338C40.133 3.57051 12.6256 21.465 8.23272 22.8732C3.60167 24.3578 -0.000180176 22.378 -1.08393e-07 18.4186Z" fill="#FF0000"/>
<path d="M58.6563 37.6599C56.0836 55.4784 12.8632 55.9727 0.000123147 39.1448C18.5232 52.508 46.0306 34.6135 50.4235 33.2053C55.0546 31.7208 58.6564 33.7005 58.6563 37.6599Z" fill="#44B215"/>
<path d="M68.041 25.788C68.041 22.3359 68.3838 19.4357 69.0637 17.0869C69.5673 15.3608 70.2626 13.8082 71.1399 12.4368C72.0172 11.0655 72.9775 10.0488 74.0207 9.37887C75.4117 8.48836 77.0156 8.03905 78.8323 8.03905C82.1232 8.03905 84.7494 9.59175 86.727 12.6891C88.6995 15.7943 89.6856 20.1055 89.6856 25.6302C89.6856 31.1079 88.7047 35.3953 86.7479 38.4848C84.7909 41.5822 82.1697 43.127 78.8946 43.127C75.5779 43.127 72.936 41.5902 70.979 38.5084C69.0223 35.4347 68.0411 31.1947 68.0411 25.788H68.041ZM72.6814 25.5594C72.6814 29.3975 73.268 32.3059 74.4359 34.292C75.6037 36.2702 77.0883 37.2632 78.8842 37.2632C80.6854 37.2632 82.1593 36.2781 83.3169 34.3156C84.4692 32.3451 85.0454 29.3975 85.0454 25.4647C85.0454 21.5792 84.4847 18.6788 83.3585 16.7716C82.2372 14.8563 80.7476 13.9027 78.8842 13.9027C77.026 13.9027 75.526 14.8722 74.3892 16.8031C73.2524 18.7418 72.6814 21.6579 72.6814 25.5593L72.6814 25.5594ZM93.1996 42.5122V8.65384H100.42C103.155 8.65384 104.935 8.81926 105.766 9.15833C107.043 9.67054 108.112 10.7739 108.974 12.4763C109.835 14.1788 110.266 16.3775 110.266 19.073C110.266 21.1538 110.017 22.8955 109.524 24.314C109.026 25.7328 108.397 26.8441 107.635 27.6558C106.872 28.4596 106.093 28.9957 105.304 29.2557C104.23 29.5789 102.678 29.7443 100.643 29.7443H97.7154V42.5122H93.1996L93.1996 42.5122ZM97.7154 14.3757V24.0224H100.17C101.94 24.0224 103.119 23.8413 103.716 23.4866C104.313 23.1319 104.78 22.5803 105.117 21.8157C105.454 21.0591 105.626 20.1843 105.626 19.1754C105.626 17.9381 105.387 16.9215 104.915 16.1174C104.437 15.3137 103.84 14.8092 103.108 14.6042C102.574 14.4545 101.499 14.3757 99.8798 14.3757H97.7154H97.7154ZM114.034 8.65384H118.239V31.1946L127.27 8.65384H131.755V42.5122H127.55V20.3341L118.519 42.5122H114.034V8.65384ZM136.359 42.5122V8.65384H152.865V14.3757H140.874V21.8944H152.024V27.6163H140.874V36.7903H153.301V42.5121H136.359L136.359 42.5122ZM139.52 5.58006V0H143.195V5.58006H139.52ZM146.075 5.58006V0H149.75V5.58006H146.075ZM157.193 42.5122V8.65384H161.709V21.9891H170.491V8.65384H175.007V42.5122H170.491V27.711H161.709V42.5122H157.193Z" fill="#373435"/>
<path d="M127.031 36.0527C127.031 37.1121 126.736 38.246 126.148 39.4662C125.605 40.7168 124.841 41.9318 123.857 43.1001C122.872 44.2742 121.723 45.3168 120.411 46.2227C119.098 47.1344 117.752 47.7256 116.371 47.9969C115.172 48.2326 114.085 48.0745 113.112 47.5219L111.075 55.4953L108.478 56L111.5 44.6214L110.86 44.7469C110.091 46.2001 109.038 47.466 107.703 48.5568C106.373 49.5788 105.072 50.2176 103.805 50.4668C103.194 50.5866 102.583 50.5378 101.977 50.3189C101.389 50.164 100.868 49.7985 100.415 49.2113C99.9857 48.5749 99.7705 47.7944 99.7705 46.8759C99.7705 45.8843 100.019 44.7758 100.517 43.5397C101.015 42.3092 101.745 41.0841 102.707 39.8752C103.669 38.6606 104.795 37.5886 106.085 36.6645C106.741 36.2198 107.397 35.8544 108.054 35.5674C108.71 35.2807 109.434 35.0595 110.227 34.9039C111.403 34.6725 112.626 34.8606 113.893 35.4681L114.504 32.7448L117.084 32.2378L115.692 37.5823C116.552 36.2188 117.627 35.0272 118.917 34.0073C120.207 32.9873 121.361 32.3775 122.38 32.1774C123.149 32.0261 123.896 32.0821 124.62 32.3454C124.96 32.4817 125.282 32.6604 125.588 32.8765C125.893 33.0983 126.154 33.3628 126.369 33.6698C126.584 33.9769 126.748 34.3166 126.861 34.6888C126.974 35.0554 127.031 35.5117 127.031 36.0527ZM123.908 36.4693C123.908 35.658 123.653 35.0881 123.144 34.7657C122.635 34.4374 122.103 34.3278 121.537 34.439C120.813 34.5813 120.043 34.9579 119.234 35.5676C118.397 36.1382 117.605 36.9473 116.858 37.9955C116.116 39.043 115.438 40.2693 114.826 41.6743L114.012 43.863L113.367 46.3618C114.159 46.3809 115.019 46.302 115.947 46.1195C116.96 45.9204 118.119 45.2926 119.415 44.2434C120.716 43.1878 121.792 41.9564 122.635 40.5397C123.483 39.1279 123.908 37.771 123.908 36.4693ZM113.452 36.6705C112.728 36.2268 111.992 36.0784 111.245 36.2251C110 36.4698 108.733 37.1019 107.443 38.1162C106.153 39.1361 105.072 40.3626 104.201 41.8071C103.33 43.2462 102.894 44.5715 102.894 45.7887C102.894 46.7298 103.114 47.4075 103.556 47.811C103.997 48.2202 104.535 48.3624 105.168 48.2379C106.119 48.051 107.001 47.5846 107.816 46.8383L109.615 45.0706C110.023 44.6526 110.464 44.0979 110.939 43.3962C111.415 42.6941 111.901 41.7027 112.399 40.4159C112.897 39.1233 113.248 37.8766 113.452 36.6705ZM147.875 38.6617L147.535 40.0639C146.245 41.5232 144.797 42.4106 143.19 42.7265C142.534 42.8555 142.002 42.791 141.595 42.5387C141.255 42.2671 141.085 41.8781 141.085 41.3596C141.085 40.4187 141.323 39.3688 141.798 38.1992L141.255 38.306C140.757 39.3224 140.089 40.2596 139.252 41.1171C138.483 41.9613 137.724 42.6345 136.978 43.1418L135.925 43.7825L134.873 44.226L133.685 44.5947C132.259 44.8748 131.15 44.6307 130.358 43.868C129.566 43.0995 129.17 42.0391 129.17 40.6926C129.17 39.3684 129.487 38.0777 130.12 36.8318C130.459 36.1792 130.81 35.5862 131.173 35.053C131.535 34.5198 131.987 33.9912 132.531 33.4561C133.504 32.4761 134.573 31.6518 135.739 30.9721C136.904 30.2921 137.94 29.8634 138.845 29.6856C139.546 29.5477 140.333 29.4944 141.204 29.526C142.076 29.5575 142.884 29.7143 143.631 29.9956L143.971 28.4752L146.517 27.9749L144.174 37.4676C144.107 37.819 144.05 38.1342 144.005 38.4139C143.959 38.6931 143.937 38.9794 143.937 39.2724C143.937 40.0105 144.288 40.3136 144.989 40.1757C145.668 40.042 146.63 39.5375 147.875 38.6617ZM143.19 31.4965C141.922 31.1428 140.734 31.072 139.626 31.29C138.381 31.5346 137.221 32.1005 136.146 32.9821C135.071 33.8698 134.16 34.9561 133.413 36.2522C132.666 37.5427 132.293 38.7601 132.293 39.9094C132.293 41.8196 132.972 42.6386 134.33 42.3718C135.484 42.1449 136.649 41.4988 137.826 40.4391C139.003 39.3739 140.072 38.0368 141.034 36.4223C141.996 34.8077 142.715 33.1619 143.19 31.4965ZM168.413 28.3594C168.413 29.4357 168.13 30.5958 167.565 31.8339C167.27 32.5398 166.942 33.1452 166.58 33.6446C166.263 34.1353 165.822 34.7007 165.256 35.3529C164.351 36.3873 163.18 37.3388 161.754 38.1993C160.328 39.0655 158.879 39.6431 157.409 39.9322C156.571 40.0967 155.887 40.1469 155.355 40.0878C154.823 40.0292 154.161 39.855 153.369 39.5767L151.287 47.7899L148.724 48.2993L154.155 26.5072L156.752 26.0027L155.457 31.3286L155.83 31.2496L156.95 29.3053C157.29 28.7651 157.822 28.1254 158.546 27.3858C159.264 26.6472 160.102 25.9925 161.052 25.4223C162.003 24.8976 162.908 24.5508 163.768 24.3816C164.13 24.3106 164.47 24.2774 164.786 24.283C165.103 24.2882 165.449 24.3444 165.833 24.4489C166.557 24.5996 167.169 25.0148 167.666 25.706C168.164 26.397 168.413 27.2775 168.413 28.3594ZM165.29 29.1763C165.29 28.641 165.154 28.1379 164.883 27.6729C164.588 27.2799 164.215 27.0208 163.762 26.8845C163.31 26.748 162.823 26.731 162.303 26.8334C161.397 27.0112 160.532 27.5023 159.706 28.3014C158.879 29.1061 157.872 30.3296 156.684 31.983C155.496 33.6308 154.585 35.6075 153.951 37.907C154.653 38.2647 155.773 38.2925 157.312 37.9901C158.761 37.7055 160.09 37.0553 161.301 36.0456C162.512 35.0302 163.48 33.8819 164.204 32.5903C164.928 31.3042 165.29 30.1679 165.29 29.1763ZM199 28.2087C199 28.7664 198.717 29.3573 198.146 29.9768C197.574 30.6018 196.426 31.3855 194.694 32.3285L193.806 32.7115L193.195 32.8991C191.656 33.2017 190.887 32.812 190.887 31.7245C190.887 30.7497 191.305 29.039 192.143 26.5924L192.516 25.4313C192.629 24.9584 192.867 24.2354 193.229 23.2573L192.312 23.4372C192.018 24.1714 191.713 24.8567 191.396 25.5049C191.079 26.1477 190.717 26.7825 190.309 27.4034C189.563 28.5362 188.504 30.0005 187.135 31.7969C185.766 33.5928 184.255 34.656 182.603 34.9807C181.97 35.1053 181.438 34.9337 181.008 34.4715C180.578 34.0038 180.363 33.2065 180.363 32.0852C180.363 31.6571 180.374 31.3391 180.397 31.1374C180.419 30.9302 180.498 30.6329 180.634 30.2457L182.569 25.352L181.619 25.5389L180.634 27.8286L180.193 28.7943L179.31 30.3199L177.251 33.7054C176.843 34.3208 176.266 34.9639 175.514 35.6412C175.174 35.9335 174.807 36.1805 174.411 36.3934C174.015 36.6009 173.59 36.7518 173.138 36.8408C172.323 37.0009 171.627 36.8896 171.061 36.5051C170.427 36.1338 170.11 35.599 170.11 34.9003C170.11 34.5395 170.19 34.1858 170.348 33.8392L172.792 33.3588C172.792 34.2379 173.12 34.6129 173.777 34.4839C174.863 34.2703 175.927 33.3513 176.968 31.7267L179.073 28.2704L180.498 25.5223C181.042 24.4239 181.664 22.8927 182.366 20.9292L185.523 20.3089L184.844 23.175L184.403 24.7438L184.097 26.0829L183.656 27.8207C183.18 29.7792 182.943 31.1106 182.943 31.8037C182.943 31.9614 183.033 32.1128 183.214 32.2574C183.395 32.357 183.656 32.396 183.995 32.3745C184.561 32.2633 185.308 31.7558 186.236 30.8578L187.56 29.4145L188.918 27.6655L190.208 25.6934L191.464 23.4576C192.256 21.9778 192.867 20.5954 193.297 19.322L196.488 18.6951L194.247 27.9254L193.806 30.0408C193.806 30.5139 194.134 30.6861 194.791 30.5572C195.198 30.4773 195.583 30.3452 195.945 30.1557C195.99 30.1186 196.035 30.0985 196.081 30.0896C196.307 29.9775 196.601 29.8013 196.963 29.5611C197.914 29.0249 198.593 28.5704 199 28.2087Z" fill="#373435" stroke="#FEFEFE" stroke-width="0.264589" stroke-miterlimit="22.9256"/>
<path d="M29.6426 17.4183C30.5907 17.4183 31.3593 18.1869 31.3593 19.135V39.7222H29.6426V17.4183Z" fill="#1D1D1D"/>
<path fill-rule="evenodd" clip-rule="evenodd" d="M29.0692 20.7377C25.8044 21.3529 23.3472 24.0316 23.3472 27.2429C23.3472 30.4541 25.8044 33.1328 29.0692 33.7481V32.1101C26.7615 31.5268 25.0648 29.5683 25.0648 27.242C25.0648 24.9157 26.7615 22.9572 29.0692 22.3739V20.7377ZM31.9304 32.1108C34.2396 31.5285 35.9377 29.5693 35.9377 27.242C35.9377 24.9147 34.2396 22.9555 31.9304 22.3732V20.7375C35.1958 21.3523 37.6535 24.0312 37.6535 27.2429C37.6535 30.4545 35.1958 33.1334 31.9304 33.7483V32.1108Z" fill="#1D1D1D"/>
<path fill-rule="evenodd" clip-rule="evenodd" d="M29.0692 19.6574C25.1687 20.2869 22.2031 23.4437 22.2031 27.2434C22.2031 31.043 25.1687 34.1999 29.0692 34.8294V34.5719C25.32 33.9452 22.4755 30.9021 22.4755 27.2424C22.4755 23.5827 25.32 20.5395 29.0692 19.9129V19.6574ZM31.9304 34.5724C35.681 33.9467 38.5268 30.903 38.5268 27.2424C38.5268 23.5818 35.681 20.5381 31.9304 19.9124V19.6571C35.8319 20.2858 38.7985 23.4431 38.7985 27.2434C38.7985 31.0437 35.8319 34.201 31.9304 34.8297V34.5724Z" fill="#1D1D1D"/>
<path fill-rule="evenodd" clip-rule="evenodd" d="M30.1015 17.4253C32.5646 17.3389 34.983 18.0528 36.9397 19.4439C38.8964 20.835 40.2686 22.8161 40.8199 25.0456C41.3711 27.275 41.0667 29.6131 39.9593 31.6567C38.8518 33.7002 37.0107 35.3211 34.7533 36.2398C33.8479 36.6083 32.8982 36.8545 31.9326 36.9768V35.4502C36.1998 34.8145 39.4597 31.3819 39.4597 27.2427C39.4597 22.6516 35.4491 18.9298 30.5017 18.9298C30.3883 18.9298 30.2754 18.9317 30.163 18.9356L30.1015 17.4253ZM29.0713 35.4502C24.8039 34.8147 21.5438 31.382 21.5438 27.2427C21.5438 24.9575 22.5374 22.8877 24.1456 21.385L22.9896 20.3197C21.2527 21.9427 20.1805 24.0772 19.9578 26.3553C19.7352 28.6333 20.3761 30.9121 21.7701 32.7986C23.1641 34.6851 25.2237 36.061 27.5938 36.6892C28.0807 36.8183 28.5745 36.9141 29.0713 36.977V35.4502Z" fill="#1D1D1D"/>
<path fill-rule="evenodd" clip-rule="evenodd" d="M29.0714 38.0491C23.2668 37.3946 18.77 32.806 18.77 27.2427C18.77 21.2303 24.0223 16.3562 30.5012 16.3562C36.9802 16.3562 42.2325 21.2303 42.2325 27.2427C42.2325 32.8054 37.7365 37.3937 31.9327 38.0489V37.6888C37.5232 37.0355 41.8472 32.6075 41.8472 27.2423C41.8472 21.427 36.7672 16.7128 30.5006 16.7128C24.2341 16.7128 19.154 21.427 19.154 27.2423C19.154 32.6084 23.4795 37.037 29.0714 37.6891V38.0491Z" fill="#1D1D1D"/>
<path fill-rule="evenodd" clip-rule="evenodd" d="M29.0714 17.5093C27.0078 17.7706 25.0703 18.5916 23.5039 19.8724L25.0168 21.4657C26.1399 20.5468 27.5329 19.9053 29.0714 19.6571V17.5093Z" fill="#1D1D1D"/>
</svg>
