<svg width="23" height="22" viewBox="0 0 23 22" fill="none" xmlns="http://www.w3.org/2000/svg">
	<path d="M21.4999 15.92V18.92C21.5011 19.1985 21.444 19.4741 21.3324 19.7293C21.2209 19.9845 21.0572 20.2136 20.852 20.4018C20.6468 20.5901 20.4045 20.7335 20.1407 20.8227C19.8769 20.9119 19.5973 20.945 19.3199 20.92C16.2428 20.5856 13.2869 19.5341 10.6899 17.85C8.27376 16.3146 6.22527 14.2661 4.68993 11.85C2.99991 9.24118 1.94818 6.27097 1.61993 3.17997C1.59494 2.90344 1.62781 2.62474 1.71643 2.3616C1.80506 2.09846 1.9475 1.85666 2.1347 1.6516C2.32189 1.44653 2.54974 1.28268 2.80372 1.1705C3.05771 1.05831 3.33227 1.00024 3.60993 0.999975H6.60993C7.09524 0.995198 7.56572 1.16705 7.93369 1.48351C8.30166 1.79996 8.54201 2.23942 8.60993 2.71997C8.73656 3.68004 8.97138 4.6227 9.30993 5.52997C9.44448 5.8879 9.4736 6.27689 9.39384 6.65086C9.31408 7.02482 9.1288 7.36809 8.85993 7.63998L7.58993 8.90997C9.01349 11.4135 11.0864 13.4864 13.5899 14.91L14.8599 13.64C15.1318 13.3711 15.4751 13.1858 15.8491 13.1061C16.223 13.0263 16.612 13.0554 16.9699 13.19C17.8772 13.5285 18.8199 13.7634 19.7799 13.89C20.2657 13.9585 20.7093 14.2032 21.0265 14.5775C21.3436 14.9518 21.5121 15.4296 21.4999 15.92Z" stroke="#1A1A1A" stroke-width="2" stroke-linecap="round" stroke-linejoin="round" />
</svg>
